# xmcd
#
# Track frame offsets: 
#        150
#        65167
#        138793
#        188988
#        216142
#        232548
#
# Disc length: 3536 seconds
#
# Revision: 1
# Processed by: cddbd v1.5.2PL0 Copyright (c) Steve Scherf et al.
# Submitted via: ExactAudioCopy v0.95a4
#
DISCID=4e0dce06
DTITLE=Julian Sas - Wandering Between Worlds [CD 2)
DYEAR=2009
DGENRE=Blues
TTITLE0=Sugarcup boogie
TTITLE1=Blues for J
TTITLE2=I take what I want
TTITLE3=The devil got my number
TTITLE4=This time my time
TTITLE5=Boogie all around
EXTD=Year: 2009 [CD 2 from 2)
EXTT0=
EXTT1=
EXTT2=
EXTT3=
EXTT4=
EXTT5=
PLAYORDER=
